<svg xmlns="http://www.w3.org/2000/svg" xmlns:xlink="http://www.w3.org/1999/xlink" width="500" zoomAndPan="magnify" viewBox="0 0 375 374.999991" height="500" preserveAspectRatio="xMidYMid meet" version="1.0"><defs><g/><clipPath id="id1"><path d="M 128 164 L 249 164 L 249 237 L 128 237 Z M 128 164 " clip-rule="nonzero"/></clipPath><clipPath id="id2"><path d="M 221.933594 261.691406 L 124.777344 233.195312 L 153.269531 136.039062 L 250.429688 164.535156 Z M 221.933594 261.691406 " clip-rule="nonzero"/></clipPath><clipPath id="id3"><path d="M 221.933594 261.691406 L 124.777344 233.195312 L 153.269531 136.039062 L 250.429688 164.535156 Z M 221.933594 261.691406 " clip-rule="nonzero"/></clipPath></defs><g clip-path="url(#id1)"><g clip-path="url(#id2)"><g clip-path="url(#id3)"><path fill="#2a5ead" d="M 223.003906 166.761719 C 223.371094 166.542969 224.117188 166.316406 224.59375 166.289062 L 245.164062 164.105469 C 248.738281 163.722656 249.800781 165.699219 247.554688 168.484375 L 234.632812 184.597656 C 234.328125 185 233.746094 185.460938 233.34375 185.71875 L 143.1875 234.964844 C 139.03125 237.238281 133.769531 235.695312 131.484375 231.511719 L 129.449219 227.753906 C 127.148438 223.542969 128.679688 218.324219 132.847656 216.007812 L 136.65625 213.964844 L 134.574219 210.191406 C 133.4375 208.078125 134.238281 205.433594 136.28125 204.300781 L 160.90625 190.84375 C 161.960938 190.285156 163.289062 190.699219 163.839844 191.703125 C 164.417969 192.761719 163.984375 194.085938 162.964844 194.679688 L 138.375 208.097656 L 140.425781 211.886719 Z M 141.144531 231.160156 L 144.929688 229.109375 L 138.710938 217.730469 L 134.941406 219.808594 C 132.847656 220.949219 132.070312 223.53125 133.21875 225.671875 L 135.300781 229.445312 C 136.421875 231.53125 139.050781 232.300781 141.144531 231.160156 Z M 228.230469 183.585938 L 222.015625 172.207031 L 142.5 215.679688 L 148.707031 227.007812 Z M 225.988281 170.472656 L 231.824219 181.152344 L 241.855469 168.753906 Z M 225.988281 170.472656 " fill-opacity="1" fill-rule="evenodd"/></g></g></g><g fill="#2a5ead" fill-opacity="1"><g transform="translate(98.169219, 131.862067)"><g><path d="M 37.921875 -52.265625 L 38.484375 -55.234375 C 38.179688 -59.328125 35.410156 -61.375 30.171875 -61.375 C 27.140625 -61.375 24.503906 -60.289062 22.265625 -58.125 C 20.023438 -55.96875 18.90625 -53.691406 18.90625 -51.296875 C 18.90625 -48.910156 19.910156 -46.820312 21.921875 -45.03125 C 23.929688 -43.25 26.359375 -41.65625 29.203125 -40.25 C 32.054688 -38.84375 34.90625 -37.320312 37.75 -35.6875 C 40.59375 -34.0625 43.019531 -31.957031 45.03125 -29.375 C 47.050781 -26.800781 48.0625 -23.878906 48.0625 -20.609375 C 48.0625 -13.847656 45.398438 -8.53125 40.078125 -4.65625 C 34.765625 -0.789062 29.035156 1.140625 22.890625 1.140625 C 16.742188 1.140625 11.617188 0.0195312 7.515625 -2.21875 C 3.410156 -4.457031 1.359375 -7.851562 1.359375 -12.40625 C 1.359375 -14.84375 2.191406 -17.046875 3.859375 -19.015625 C 5.535156 -20.992188 7.929688 -21.984375 11.046875 -21.984375 C 12.265625 -21.984375 13.363281 -21.640625 14.34375 -20.953125 C 15.332031 -20.265625 15.941406 -19.351562 16.171875 -18.21875 C 16.171875 -17.082031 15.488281 -16.515625 14.125 -16.515625 C 11.539062 -16.515625 10.25 -15.410156 10.25 -13.203125 C 10.320312 -10.703125 11.515625 -8.425781 13.828125 -6.375 C 16.148438 -4.320312 19.414062 -3.296875 23.625 -3.296875 C 27.84375 -3.296875 31.445312 -4.738281 34.4375 -7.625 C 37.4375 -10.507812 38.9375 -14.003906 38.9375 -18.109375 C 38.9375 -20.835938 37.910156 -23.300781 35.859375 -25.5 C 33.816406 -27.707031 31.351562 -29.585938 28.46875 -31.140625 C 25.582031 -32.703125 22.675781 -34.28125 19.75 -35.875 C 16.832031 -37.46875 14.347656 -39.398438 12.296875 -41.671875 C 10.242188 -43.953125 9.21875 -46.535156 9.21875 -49.421875 C 9.21875 -54.503906 11.398438 -58.5625 15.765625 -61.59375 C 20.128906 -64.632812 25.082031 -66.15625 30.625 -66.15625 C 34.351562 -66.15625 37.734375 -65.394531 40.765625 -63.875 C 43.804688 -62.363281 45.363281 -60.050781 45.4375 -56.9375 C 45.4375 -55.113281 44.976562 -53.59375 44.0625 -52.375 C 43.15625 -51.164062 41.921875 -50.5625 40.359375 -50.5625 C 38.804688 -50.5625 37.992188 -51.128906 37.921875 -52.265625 Z M 37.921875 -52.265625 "/></g></g></g><g fill="#2a5ead" fill-opacity="1"><g transform="translate(152.713439, 131.862067)"><g><path d="M 25.515625 -18.5625 C 19.515625 -5.8125 14.441406 0.5625 10.296875 0.5625 C 6.160156 0.5625 3.734375 0.0703125 3.015625 -0.90625 C 2.296875 -1.894531 1.9375 -5.160156 1.9375 -10.703125 C 1.9375 -16.242188 2.46875 -24.253906 3.53125 -34.734375 C -0.257812 -35.492188 -2.269531 -37.050781 -2.5 -39.40625 C -2.5 -40.613281 -1.703125 -41.21875 -0.109375 -41.21875 C 1.484375 -41.21875 2.882812 -40.914062 4.09375 -40.3125 C 4.78125 -45.78125 5.578125 -51.320312 6.484375 -56.9375 C 6.710938 -58.375 7.429688 -59.738281 8.640625 -61.03125 C 9.859375 -62.320312 11.039062 -62.96875 12.1875 -62.96875 C 13.175781 -62.96875 13.671875 -61.410156 13.671875 -58.296875 C 13.671875 -56.859375 13.140625 -50.21875 12.078125 -38.375 C 14.117188 -38.75 16.375 -39.503906 18.84375 -40.640625 C 21.3125 -41.785156 22.773438 -42.359375 23.234375 -42.359375 C 24.597656 -42.359375 25.28125 -41.941406 25.28125 -41.109375 C 25.351562 -40.347656 23.945312 -39.300781 21.0625 -37.96875 C 18.175781 -36.644531 15.066406 -35.640625 11.734375 -34.953125 C 10.816406 -23.867188 10.359375 -15.484375 10.359375 -9.796875 C 10.359375 -6.753906 10.816406 -5.234375 11.734375 -5.234375 C 13.097656 -5.316406 14.914062 -6.910156 17.1875 -10.015625 C 19.46875 -13.128906 21.726562 -17.171875 23.96875 -22.140625 C 26.207031 -27.117188 27.570312 -29.609375 28.0625 -29.609375 C 28.5625 -29.609375 28.8125 -29.304688 28.8125 -28.703125 C 28.8125 -26.578125 27.710938 -23.195312 25.515625 -18.5625 Z M 25.515625 -18.5625 "/></g></g></g><g fill="#2a5ead" fill-opacity="1"><g transform="translate(175.601519, 131.862067)"><g><path d="M 0 -9.90625 L 0.6875 -22.65625 C 0.6875 -30.78125 1.0625 -35.222656 1.8125 -35.984375 C 2.570312 -36.742188 3.921875 -37.863281 5.859375 -39.34375 C 7.796875 -40.820312 9.203125 -41.5625 10.078125 -41.5625 C 10.953125 -41.5625 11.503906 -41.410156 11.734375 -41.109375 C 11.960938 -40.804688 12.078125 -40.195312 12.078125 -39.28125 C 12.078125 -36.019531 11.351562 -32.71875 9.90625 -29.375 C 8.769531 -22.394531 8.203125 -16.664062 8.203125 -12.1875 C 8.203125 -7.707031 8.734375 -5.46875 9.796875 -5.46875 C 11.617188 -5.46875 13.722656 -7.078125 16.109375 -10.296875 C 18.503906 -13.523438 20.953125 -18.289062 23.453125 -24.59375 C 23.535156 -26.269531 23.613281 -28.035156 23.6875 -29.890625 C 23.757812 -31.753906 23.832031 -33.117188 23.90625 -33.984375 C 23.988281 -34.859375 24.046875 -35.484375 24.078125 -35.859375 C 24.117188 -36.242188 25.164062 -37.289062 27.21875 -39 C 29.269531 -40.707031 30.84375 -41.5625 31.9375 -41.5625 C 33.039062 -41.5625 33.59375 -40.117188 33.59375 -37.234375 C 33.59375 -36.472656 33.382812 -34.992188 32.96875 -32.796875 C 32.550781 -30.597656 32.078125 -29.003906 31.546875 -28.015625 C 30.929688 -22.617188 30.515625 -17.910156 30.296875 -13.890625 C 37.734375 -23.304688 41.695312 -28.28125 42.1875 -28.8125 C 42.6875 -29.34375 43.125 -29.609375 43.5 -29.609375 C 44.257812 -29.609375 44.640625 -29.226562 44.640625 -28.46875 C 44.640625 -28.007812 44.488281 -27.515625 44.1875 -26.984375 C 41.757812 -23.421875 36.972656 -17.160156 29.828125 -8.203125 C 29.378906 0.835938 29.078125 6.988281 28.921875 10.25 C 28.546875 19.882812 27.195312 26.65625 24.875 30.5625 C 22.5625 34.476562 18.445312 36.4375 12.53125 36.4375 C 9.945312 36.4375 7.535156 35.65625 5.296875 34.09375 C 3.054688 32.539062 1.9375 29.847656 1.9375 26.015625 C 1.9375 22.179688 3.394531 18.253906 6.3125 14.234375 C 9.238281 10.210938 14.570312 4.023438 22.3125 -4.328125 L 23 -16.734375 C 20.414062 -11.046875 17.867188 -6.738281 15.359375 -3.8125 C 12.859375 -0.894531 10.085938 0.5625 7.046875 0.5625 C 4.015625 0.5625 2.082031 -0.191406 1.25 -1.703125 C 0.414062 -3.222656 0 -5.957031 0 -9.90625 Z M 21.984375 1.03125 C 13.328125 10.363281 9 17.835938 9 23.453125 C 9 26.035156 9.453125 28.160156 10.359375 29.828125 C 11.273438 31.503906 12.53125 32.34375 14.125 32.34375 C 16.550781 32.34375 18.253906 31.015625 19.234375 28.359375 C 20.222656 25.703125 20.945312 20.3125 21.40625 12.1875 Z M 21.984375 1.03125 "/></g></g></g><g fill="#2a5ead" fill-opacity="1"><g transform="translate(215.456378, 131.862067)"><g><path d="M 8.3125 0.5625 C 6.644531 0.5625 5.109375 0.351562 3.703125 -0.0625 C 2.296875 -0.476562 1.441406 -0.875 1.140625 -1.25 C 0.378906 -2.164062 0 -6.890625 0 -15.421875 C 0 -23.960938 0.945312 -35.5625 2.84375 -50.21875 C 4.4375 -62.289062 8.15625 -68.328125 14 -68.328125 C 15.375 -68.328125 16.363281 -67.585938 16.96875 -66.109375 C 17.570312 -64.628906 17.875 -63.203125 17.875 -61.828125 C 17.875 -51.960938 14.875 -40.921875 8.875 -28.703125 C 8.65625 -22.398438 8.546875 -16.910156 8.546875 -12.234375 C 8.546875 -7.566406 8.960938 -5.234375 9.796875 -5.234375 C 11.085938 -5.316406 12.867188 -6.929688 15.140625 -10.078125 C 17.421875 -13.222656 19.679688 -17.265625 21.921875 -22.203125 C 24.160156 -27.140625 25.523438 -29.609375 26.015625 -29.609375 C 26.515625 -29.609375 26.765625 -29.304688 26.765625 -28.703125 C 26.765625 -26.578125 25.660156 -23.195312 23.453125 -18.5625 C 17.460938 -5.8125 12.414062 0.5625 8.3125 0.5625 Z M 15.03125 -60.8125 C 15.03125 -63.238281 14.726562 -64.453125 14.125 -64.453125 C 11.84375 -64.453125 10.171875 -55 9.109375 -36.09375 C 13.054688 -46.5 15.03125 -54.738281 15.03125 -60.8125 Z M 15.03125 -60.8125 "/></g></g></g><g fill="#2a5ead" fill-opacity="1"><g transform="translate(235.383814, 131.862067)"><g><path d="M 35.640625 -24.703125 C 38.679688 -25.691406 40.789062 -26.546875 41.96875 -27.265625 C 43.144531 -27.992188 44.035156 -28.546875 44.640625 -28.921875 L 46 -29.71875 C 46.382812 -29.945312 46.691406 -30.0625 46.921875 -30.0625 C 47.523438 -30.0625 47.828125 -29.71875 47.828125 -29.03125 C 47.828125 -28.351562 46.648438 -27.160156 44.296875 -25.453125 C 41.941406 -23.742188 39.019531 -22.207031 35.53125 -20.84375 C 35 -14.46875 32.984375 -9.304688 29.484375 -5.359375 C 25.992188 -1.410156 21.023438 0.5625 14.578125 0.5625 C 9.867188 0.5625 6.257812 -1.3125 3.75 -5.0625 C 1.25 -8.820312 0 -13.222656 0 -18.265625 C 0 -23.316406 1.5 -28.082031 4.5 -32.5625 C 7.5 -37.039062 11.351562 -39.28125 16.0625 -39.28125 C 18.1875 -40.800781 20.707031 -41.5625 23.625 -41.5625 C 26.550781 -41.5625 29.265625 -40.003906 31.765625 -36.890625 C 34.273438 -33.785156 35.566406 -29.722656 35.640625 -24.703125 Z M 28.234375 -18.90625 L 24.140625 -18.671875 C 20.648438 -18.671875 17.6875 -19.710938 15.25 -21.796875 C 12.820312 -23.890625 11.609375 -26.1875 11.609375 -28.6875 C 11.609375 -31.195312 12.03125 -33.363281 12.875 -35.1875 C 9.601562 -32.601562 7.96875 -27.515625 7.96875 -19.921875 C 7.96875 -16.285156 8.726562 -12.816406 10.25 -9.515625 C 11.769531 -6.210938 14.160156 -4.5625 17.421875 -4.5625 C 20.679688 -4.5625 23.222656 -5.945312 25.046875 -8.71875 C 26.867188 -11.488281 27.929688 -14.882812 28.234375 -18.90625 Z M 21.1875 -37.8125 C 19.96875 -37.8125 19.015625 -37.257812 18.328125 -36.15625 C 17.648438 -35.050781 17.3125 -33.851562 17.3125 -32.5625 C 17.3125 -29.757812 18.273438 -27.484375 20.203125 -25.734375 C 22.140625 -23.984375 24.398438 -23.109375 26.984375 -23.109375 L 28.359375 -23.109375 C 28.203125 -26.835938 27.570312 -30.21875 26.46875 -33.25 C 25.375 -36.289062 23.613281 -37.8125 21.1875 -37.8125 Z M 21.1875 -37.8125 "/></g></g></g><g fill="#2a5ead" fill-opacity="1"><g transform="translate(95.028594, 290.862057)"><g><path d="M 25.515625 -18.5625 C 19.515625 -5.8125 14.441406 0.5625 10.296875 0.5625 C 6.160156 0.5625 3.734375 0.0703125 3.015625 -0.90625 C 2.296875 -1.894531 1.9375 -5.160156 1.9375 -10.703125 C 1.9375 -16.242188 2.46875 -24.253906 3.53125 -34.734375 C -0.257812 -35.492188 -2.269531 -37.050781 -2.5 -39.40625 C -2.5 -40.613281 -1.703125 -41.21875 -0.109375 -41.21875 C 1.484375 -41.21875 2.882812 -40.914062 4.09375 -40.3125 C 4.78125 -45.78125 5.578125 -51.320312 6.484375 -56.9375 C 6.710938 -58.375 7.429688 -59.738281 8.640625 -61.03125 C 9.859375 -62.320312 11.039062 -62.96875 12.1875 -62.96875 C 13.175781 -62.96875 13.671875 -61.410156 13.671875 -58.296875 C 13.671875 -56.859375 13.140625 -50.21875 12.078125 -38.375 C 14.117188 -38.75 16.375 -39.503906 18.84375 -40.640625 C 21.3125 -41.785156 22.773438 -42.359375 23.234375 -42.359375 C 24.597656 -42.359375 25.28125 -41.941406 25.28125 -41.109375 C 25.351562 -40.347656 23.945312 -39.300781 21.0625 -37.96875 C 18.175781 -36.644531 15.066406 -35.640625 11.734375 -34.953125 C 10.816406 -23.867188 10.359375 -15.484375 10.359375 -9.796875 C 10.359375 -6.753906 10.816406 -5.234375 11.734375 -5.234375 C 13.097656 -5.316406 14.914062 -6.910156 17.1875 -10.015625 C 19.46875 -13.128906 21.726562 -17.171875 23.96875 -22.140625 C 26.207031 -27.117188 27.570312 -29.609375 28.0625 -29.609375 C 28.5625 -29.609375 28.8125 -29.304688 28.8125 -28.703125 C 28.8125 -26.578125 27.710938 -23.195312 25.515625 -18.5625 Z M 25.515625 -18.5625 "/></g></g></g><g fill="#2a5ead" fill-opacity="1"><g transform="translate(117.916673, 290.862057)"><g><path d="M 13.890625 0.5625 C 9.640625 0.5625 6.257812 -1.046875 3.75 -4.265625 C 1.25 -7.492188 0 -11.160156 0 -15.265625 C 0 -23.535156 1.742188 -29.796875 5.234375 -34.046875 C 8.722656 -38.296875 13.242188 -40.421875 18.796875 -40.421875 C 21.367188 -40.421875 23.488281 -39.71875 25.15625 -38.3125 C 26.832031 -36.914062 27.671875 -35 27.671875 -32.5625 C 27.671875 -28.007812 25.753906 -24.195312 21.921875 -21.125 C 18.085938 -18.050781 13.398438 -16.4375 7.859375 -16.28125 C 8.160156 -13.320312 9.164062 -10.757812 10.875 -8.59375 C 12.582031 -6.4375 14.570312 -5.359375 16.84375 -5.359375 C 19.125 -5.359375 21.175781 -5.890625 23 -6.953125 C 24.820312 -8.015625 26.492188 -9.53125 28.015625 -11.5 C 31.203125 -15.675781 33.9375 -20.421875 36.21875 -25.734375 C 36.820312 -27.097656 37.289062 -28.082031 37.625 -28.6875 C 37.96875 -29.300781 38.347656 -29.609375 38.765625 -29.609375 C 39.191406 -29.609375 39.40625 -29.304688 39.40625 -28.703125 C 39.40625 -24.898438 37.085938 -19.203125 32.453125 -11.609375 C 27.441406 -3.492188 21.253906 0.5625 13.890625 0.5625 Z M 7.859375 -19.015625 C 12.335938 -19.773438 15.617188 -21.21875 17.703125 -23.34375 C 19.796875 -25.46875 20.84375 -28.238281 20.84375 -31.65625 C 20.84375 -35.070312 19.738281 -36.78125 17.53125 -36.78125 C 14.875 -36.78125 12.632812 -34.9375 10.8125 -31.25 C 8.988281 -27.570312 8.003906 -23.492188 7.859375 -19.015625 Z M 7.859375 -19.015625 "/></g></g></g><g fill="#2a5ead" fill-opacity="1"><g transform="translate(151.280891, 290.862057)"><g><path d="M 8.875 -6.15625 L 9 -2.625 C 9 -0.5 8.390625 0.5625 7.171875 0.5625 C 5.347656 0.5625 3.601562 0.316406 1.9375 -0.171875 C 0.269531 -0.660156 -0.5625 -1.34375 -0.5625 -2.21875 C -0.5625 -3.09375 -0.351562 -6.09375 0.0625 -11.21875 C 0.476562 -16.34375 0.6875 -20.195312 0.6875 -22.78125 L 0.6875 -29.5 C 0.6875 -33.132812 1.0625 -35.332031 1.8125 -36.09375 C 2.570312 -36.851562 3.921875 -37.953125 5.859375 -39.390625 C 7.796875 -40.835938 9.203125 -41.5625 10.078125 -41.5625 C 10.953125 -41.5625 11.503906 -41.410156 11.734375 -41.109375 C 11.960938 -40.804688 12.078125 -40.238281 12.078125 -39.40625 C 12.078125 -35.375 11.316406 -31.578125 9.796875 -28.015625 C 9.410156 -23.679688 9.21875 -20.679688 9.21875 -19.015625 C 9.519531 -19.472656 11.113281 -22.054688 14 -26.765625 C 16.882812 -31.472656 19.332031 -34.925781 21.34375 -37.125 C 23.363281 -39.320312 25.171875 -40.421875 26.765625 -40.421875 C 28.359375 -40.421875 29.78125 -39.890625 31.03125 -38.828125 C 32.28125 -37.765625 32.90625 -36.4375 32.90625 -34.84375 C 32.90625 -31.5 32.546875 -26.582031 31.828125 -20.09375 C 31.109375 -13.601562 30.75 -9.503906 30.75 -7.796875 C 30.75 -6.085938 30.972656 -5.234375 31.421875 -5.234375 C 32.710938 -5.316406 34.5 -6.929688 36.78125 -10.078125 C 39.0625 -13.222656 41.320312 -17.265625 43.5625 -22.203125 C 45.800781 -27.140625 47.164062 -29.609375 47.65625 -29.609375 C 48.144531 -29.609375 48.390625 -29.304688 48.390625 -28.703125 C 48.390625 -26.578125 47.289062 -23.195312 45.09375 -18.5625 C 39.09375 -5.8125 34.046875 0.5625 29.953125 0.5625 C 26.992188 0.5625 24.753906 -0.0390625 23.234375 -1.25 C 22.703125 -1.78125 22.4375 -3.164062 22.4375 -5.40625 C 22.4375 -7.644531 22.644531 -11.285156 23.0625 -16.328125 C 23.476562 -21.378906 23.6875 -25.15625 23.6875 -27.65625 C 23.6875 -30.164062 23.25 -31.421875 22.375 -31.421875 C 21.5 -31.421875 19.203125 -28.820312 15.484375 -23.625 C 11.765625 -18.425781 9.789062 -15.109375 9.5625 -13.671875 C 9.101562 -11.003906 8.875 -8.5 8.875 -6.15625 Z M 8.875 -6.15625 "/></g></g></g><g fill="#2a5ead" fill-opacity="1"><g transform="translate(193.527039, 290.862057)"><g><path d="M 32.453125 0.5625 C 29.867188 0.5625 27.859375 -0.00390625 26.421875 -1.140625 C 25.816406 -1.742188 25.515625 -3.335938 25.515625 -5.921875 C 25.515625 -8.503906 25.625 -11.882812 25.84375 -16.0625 C 23.800781 -10.59375 21.710938 -6.453125 19.578125 -3.640625 C 17.453125 -0.835938 14.773438 0.5625 11.546875 0.5625 C 8.328125 0.5625 5.597656 -0.835938 3.359375 -3.640625 C 1.117188 -6.453125 0 -10.929688 0 -17.078125 C 0 -23.234375 1.722656 -28.660156 5.171875 -33.359375 C 8.628906 -38.066406 13.171875 -40.421875 18.796875 -40.421875 C 21.523438 -40.421875 24.367188 -39.359375 27.328125 -37.234375 C 28.546875 -52.035156 29.644531 -60.390625 30.625 -62.296875 C 31.082031 -63.128906 32.164062 -64.34375 33.875 -65.9375 C 35.582031 -67.53125 37.003906 -68.328125 38.140625 -68.328125 C 39.285156 -68.328125 39.859375 -66.539062 39.859375 -62.96875 C 39.859375 -58.789062 39.476562 -55.1875 38.71875 -52.15625 C 36.664062 -44.332031 35.375 -39.359375 34.84375 -37.234375 C 33.78125 -29.035156 33.25 -19.394531 33.25 -8.3125 C 33.25 -6.257812 33.476562 -5.234375 33.9375 -5.234375 C 35.300781 -5.316406 37.117188 -6.910156 39.390625 -10.015625 C 41.671875 -13.128906 43.929688 -17.171875 46.171875 -22.140625 C 48.410156 -27.117188 49.773438 -29.609375 50.265625 -29.609375 C 50.765625 -29.609375 51.015625 -29.304688 51.015625 -28.703125 C 51.015625 -26.578125 49.914062 -23.195312 47.71875 -18.5625 C 41.71875 -5.8125 36.628906 0.5625 32.453125 0.5625 Z M 18.109375 -36.328125 C 16.054688 -36.328125 14.003906 -34.691406 11.953125 -31.421875 C 9.898438 -28.160156 8.875 -24.382812 8.875 -20.09375 C 8.875 -15.8125 9.425781 -12.300781 10.53125 -9.5625 C 11.632812 -6.832031 13.019531 -5.46875 14.6875 -5.46875 C 18.101562 -5.46875 22.015625 -12.300781 26.421875 -25.96875 C 26.796875 -30.144531 26.984375 -32.609375 26.984375 -33.359375 C 24.785156 -35.335938 21.828125 -36.328125 18.109375 -36.328125 Z M 18.109375 -36.328125 "/></g></g></g><g fill="#2a5ead" fill-opacity="1"><g transform="translate(238.392224, 290.862057)"><g><path d="M 0 -9.90625 L 0.6875 -22.65625 C 0.6875 -30.78125 1.0625 -35.222656 1.8125 -35.984375 C 2.570312 -36.742188 3.921875 -37.863281 5.859375 -39.34375 C 7.796875 -40.820312 9.203125 -41.5625 10.078125 -41.5625 C 10.953125 -41.5625 11.503906 -41.410156 11.734375 -41.109375 C 11.960938 -40.804688 12.078125 -40.195312 12.078125 -39.28125 C 12.078125 -36.019531 11.351562 -32.71875 9.90625 -29.375 C 8.769531 -22.394531 8.203125 -16.664062 8.203125 -12.1875 C 8.203125 -7.707031 8.921875 -5.46875 10.359375 -5.46875 C 12.109375 -5.46875 14.160156 -6.984375 16.515625 -10.015625 C 18.867188 -13.054688 21.222656 -17.578125 23.578125 -23.578125 C 24.253906 -31.160156 24.800781 -35.253906 25.21875 -35.859375 C 25.632812 -36.472656 26.675781 -37.578125 28.34375 -39.171875 C 30.019531 -40.765625 31.40625 -41.5625 32.5 -41.5625 C 33.601562 -41.5625 34.15625 -40.117188 34.15625 -37.234375 C 34.15625 -36.472656 33.945312 -34.992188 33.53125 -32.796875 C 33.113281 -30.597656 32.640625 -29.003906 32.109375 -28.015625 C 31.273438 -25.890625 30.859375 -19.320312 30.859375 -8.3125 C 30.859375 -6.257812 31.085938 -5.234375 31.546875 -5.234375 C 32.835938 -5.316406 34.617188 -6.929688 36.890625 -10.078125 C 39.171875 -13.222656 41.429688 -17.265625 43.671875 -22.203125 C 45.910156 -27.140625 47.273438 -29.609375 47.765625 -29.609375 C 48.265625 -29.609375 48.515625 -29.304688 48.515625 -28.703125 C 48.515625 -26.578125 47.410156 -23.195312 45.203125 -18.5625 C 39.210938 -5.8125 34.164062 0.5625 30.0625 0.5625 C 27.101562 0.5625 24.863281 -0.0390625 23.34375 -1.25 C 22.8125 -1.78125 22.546875 -3.410156 22.546875 -6.140625 C 22.546875 -8.878906 22.660156 -11.921875 22.890625 -15.265625 C 20.460938 -10.097656 18.03125 -6.164062 15.59375 -3.46875 C 13.164062 -0.78125 10.453125 0.5625 7.453125 0.5625 C 4.453125 0.5625 2.457031 -0.234375 1.46875 -1.828125 C 0.488281 -3.421875 0 -6.113281 0 -9.90625 Z M 0 -9.90625 "/></g></g></g></svg>